#N canvas 275 94 452 587 10;
#X obj 28 28 inlet~;
#X obj 27 543 outlet~;
#X obj 58 82 hip~ 5;
#X obj 58 108 *~;
#X obj 281 25 inlet;
#X obj 87 281 rmstodb~;
#X obj 86 353 dbtorms~;
#X obj 27 474 *~;
#X obj 57 135 lop~ 10;
#X obj 87 221 lop~ 25;
#X obj 25 272 /~;
#X obj 201 390 dbtorms;
#X obj 86 417 /~ 0;
#X obj 87 179 sqrt~;
#X obj 86 442 *~ 0.25;
#X obj 310 55 loadbang;
#X obj 310 79 f \$1;
#X obj 27 514 expr~ tanh($v1);
#X obj 86 314 expr~ if($v1>$f2 \, $f2+($v1-$f2)/8 \, $f2);
#X obj 201 366 expr (100-$f1)/8+$f1;
#X obj 88 202 +~ 0.01;
#X connect 0 0 2 0;
#X connect 0 0 10 0;
#X connect 2 0 3 0;
#X connect 2 0 3 1;
#X connect 3 0 8 0;
#X connect 4 0 18 1;
#X connect 4 0 19 0;
#X connect 5 0 18 0;
#X connect 6 0 12 0;
#X connect 7 0 17 0;
#X connect 8 0 13 0;
#X connect 9 0 10 1;
#X connect 9 0 5 0;
#X connect 10 0 7 0;
#X connect 11 0 12 1;
#X connect 12 0 14 0;
#X connect 13 0 20 0;
#X connect 14 0 7 1;
#X connect 15 0 16 0;
#X connect 16 0 18 1;
#X connect 16 0 19 0;
#X connect 17 0 1 0;
#X connect 18 0 6 0;
#X connect 19 0 11 0;
#X connect 20 0 9 0;
