#N canvas 3 93 450 358 10;
#X obj 40 198 pitchshift~;
#X obj 178 44 r EDGE;
#X obj 178 66 route \$1;
#X obj 178 88 route \$2;
#X obj 178 110 route \$3;
#X obj 113 174 vline~;
#X obj 114 129 f;
#X obj 228 179 f;
#X obj 40 243 *~;
#X obj 72 244 vline~;
#X obj 114 154 expr -12*log($f1/0.5)/log(2);
#X obj 39 314 throw~ RULE-\$4-l;
#X obj 163 314 throw~ RULE-\$4-r;
#X obj 38 287 *~;
#X obj 164 291 *~;
#X obj 251 251 expr 3.141592653/2*$f1;
#X obj 251 274 expr cos($f1) \; sin($f1);
#X obj 66 287 vline~;
#X obj 197 290 vline~;
#X obj 41 43 r~ RULE-\$1-l;
#X obj 52 71 r~ RULE-\$1-r;
#X obj 50 218 pitchshift~;
#X obj 52 264 *~;
#X msg 229 200 set RULE-\$1-l;
#X msg 238 220 set RULE-\$1-r;
#X msg 320 154 \; \$1 bang;
#X obj 178 132 route scale target pan echo active;
#X obj 360 201 switch~;
#X obj 382 166 f;
#X obj 371 81 loadbang;
#X msg 371 103 1;
#X connect 0 0 8 0;
#X connect 1 0 2 0;
#X connect 2 0 3 0;
#X connect 3 0 4 0;
#X connect 4 0 26 0;
#X connect 5 0 0 1;
#X connect 5 0 21 1;
#X connect 6 0 9 0;
#X connect 6 0 10 0;
#X connect 7 0 23 0;
#X connect 7 0 24 0;
#X connect 8 0 13 0;
#X connect 9 0 8 1;
#X connect 9 0 22 1;
#X connect 10 0 5 0;
#X connect 13 0 11 0;
#X connect 14 0 12 0;
#X connect 15 0 16 0;
#X connect 16 0 17 0;
#X connect 16 1 18 0;
#X connect 17 0 13 1;
#X connect 18 0 14 1;
#X connect 19 0 0 0;
#X connect 20 0 21 0;
#X connect 21 0 22 0;
#X connect 22 0 14 0;
#X connect 23 0 11 0;
#X connect 24 0 12 0;
#X connect 26 0 6 0;
#X connect 26 1 7 0;
#X connect 26 2 15 0;
#X connect 26 3 25 0;
#X connect 26 4 28 0;
#X connect 28 0 27 0;
#X connect 29 0 30 0;
#X connect 30 0 28 0;
