#N canvas 24 92 520 592 10;
#N canvas 3 143 450 300 RULES 0;
#X obj 41 35 rule~ 0;
#X obj 41 57 rule~ 1;
#X obj 41 79 rule~ 2;
#X obj 41 101 rule~ 3;
#X obj 41 123 rule~ 4;
#X obj 41 145 rule~ 5;
#X obj 41 167 rule~ 6;
#X obj 41 189 rule~ 7;
#X restore 32 139 pd RULES;
#X obj 61 283 dac~;
#N canvas 3 143 450 300 EDGES 0;
#X restore 32 112 pd EDGES;
#X obj 215 51 netreceive 6060;
#X obj 278 401 list prepend obj 10 10 edge~;
#X obj 278 423 list trim;
#X obj 298 530 s pd-EDGES;
#X obj 278 445 t b b a b;
#X msg 295 467 loadbang;
#X msg 338 491 \; pd dsp 0;
#X msg 268 489 \; pd dsp 1;
#X msg 420 466 clear;
#X obj 33 205 hip~ 5;
#X obj 33 165 catch~ OUT-l;
#X obj 129 187 hip~ 5;
#X obj 129 165 catch~ OUT-r;
#X obj 41 318 env~ 16384;
#X floatatom 41 340 5 0 0 0 - - -, f 5;
#X obj 120 318 env~ 16384;
#X floatatom 120 340 5 0 0 0 - - -, f 5;
#X obj 259 267 s EDGE;
#X obj 311 269 r ECHO;
#X msg 312 295 0;
#X obj 216 303 list prepend;
#X obj 216 202 t a a b;
#X msg 296 221 1;
#X obj 216 352 route 0 1;
#X obj 216 325 list trim;
#X msg 216 374 \$1 \$2 \$3 active 1 \, \$1 \$2 \$3 target \$4;
#X obj 216 396 s EDGE;
#X obj 215 123 route add delete set;
#X text 219 143 ffff;
#X text 274 142 fff;
#X msg 277 174 \$1 \$2 \$3 active 0;
#X obj 277 196 s EDGE;
#X text 321 143 fffsf;
#X obj 336 196 s EDGE;
#X msg 259 245 \$1 \$2 \$3 echo symbol ECHO;
#X obj 35 487 writesf~ 2;
#X msg 54 453 stop;
#X obj 35 24 loadbang;
#X msg 35 70 \; pd dsp 1;
#X msg 18 429 open -bytes 4 audio.wav \, start;
#X obj 33 231 compress~ 48;
#X obj 128 230 compress~ 48;
#X obj 116 257 *~ 1;
#X obj 34 254 *~ 1;
#N canvas 529 88 593 502 RANDOMIZE 0;
#X obj 87 11 inlet;
#X obj 96 73 random 8;
#X obj 96 95 + 1;
#X msg 164 72 clear;
#X obj 164 94 s pd-EDGES;
#X msg 245 71 \; pd dsp 0;
#X obj 96 175 * 3;
#X obj 96 197 until;
#X obj 84 289 random;
#X obj 98 379 pack f f f f f f;
#X obj 237 285 random;
#X obj 176 285 f 0;
#X obj 204 285 + 1;
#X msg 140 290 0;
#X obj 96 219 t b b b b b b;
#X obj 297 300 t f f;
#X obj 297 322 *;
#X obj 446 301 - 0.5;
#X obj 446 323 * 0.5;
#X obj 446 345 + 0.5;
#X obj 96 114 t f b f;
#X obj 114 157 + 2;
#X obj 114 135 random 3;
#X msg 159 187 0;
#X msg 94 406 add \$1 \$2 \$3 \$4 \, set \$1 \$2 \$3 scale \$5 \, set
\$1 \$2 \$3 pan \$6;
#X obj 91 437 outlet;
#X msg 30 77 \; pd dsp 1;
#X obj 298 256 random 1e+06;
#X obj 297 278 / 1e+06;
#X obj 448 257 random 1e+06;
#X obj 446 279 / 1e+06;
#X obj 87 33 t b b b b b;
#X msg 425 65 --------------;
#X connect 0 0 31 0;
#X connect 1 0 2 0;
#X connect 2 0 20 0;
#X connect 3 0 4 0;
#X connect 6 0 7 0;
#X connect 7 0 14 0;
#X connect 8 0 9 0;
#X connect 9 0 24 0;
#X connect 10 0 9 3;
#X connect 11 0 12 0;
#X connect 11 0 9 2;
#X connect 12 0 11 1;
#X connect 13 0 9 1;
#X connect 14 0 8 0;
#X connect 14 1 13 0;
#X connect 14 2 11 0;
#X connect 14 3 10 0;
#X connect 14 4 27 0;
#X connect 14 5 29 0;
#X connect 15 0 16 0;
#X connect 15 1 16 1;
#X connect 16 0 9 4;
#X connect 17 0 18 0;
#X connect 18 0 19 0;
#X connect 19 0 9 5;
#X connect 20 0 6 0;
#X connect 20 1 22 0;
#X connect 20 1 23 0;
#X connect 20 2 8 1;
#X connect 20 2 10 1;
#X connect 21 0 6 1;
#X connect 22 0 21 0;
#X connect 23 0 11 1;
#X connect 24 0 25 0;
#X connect 27 0 28 0;
#X connect 28 0 15 0;
#X connect 29 0 30 0;
#X connect 30 0 17 0;
#X connect 31 0 26 0;
#X connect 31 1 1 0;
#X connect 31 2 3 0;
#X connect 31 3 5 0;
#X connect 31 4 32 0;
#X connect 32 0 25 0;
#X restore 380 93 pd RANDOMIZE;
#X obj 382 61 bng 15 250 50 0 empty empty empty 17 7 0 10 -262144 -1
-1;
#X obj 399 122 print -n;
#X obj 35 46 delay 1;
#X connect 3 0 30 0;
#X connect 4 0 5 0;
#X connect 5 0 7 0;
#X connect 7 0 10 0;
#X connect 7 1 8 0;
#X connect 7 2 6 0;
#X connect 7 3 9 0;
#X connect 8 0 6 0;
#X connect 11 0 6 0;
#X connect 12 0 43 0;
#X connect 13 0 12 0;
#X connect 14 0 44 0;
#X connect 15 0 14 0;
#X connect 16 0 17 0;
#X connect 18 0 19 0;
#X connect 21 0 22 0;
#X connect 22 0 23 1;
#X connect 23 0 27 0;
#X connect 24 0 23 0;
#X connect 24 1 37 0;
#X connect 24 2 25 0;
#X connect 25 0 23 1;
#X connect 26 0 28 0;
#X connect 26 1 4 0;
#X connect 27 0 26 0;
#X connect 28 0 29 0;
#X connect 30 0 24 0;
#X connect 30 1 33 0;
#X connect 30 2 36 0;
#X connect 33 0 34 0;
#X connect 37 0 20 0;
#X connect 39 0 38 0;
#X connect 40 0 50 0;
#X connect 42 0 38 0;
#X connect 43 0 46 0;
#X connect 44 0 45 0;
#X connect 45 0 18 0;
#X connect 45 0 1 1;
#X connect 45 0 38 1;
#X connect 46 0 1 0;
#X connect 46 0 16 0;
#X connect 46 0 38 0;
#X connect 47 0 30 0;
#X connect 47 0 49 0;
#X connect 48 0 47 0;
#X connect 50 0 41 0;
