#N canvas 77 85 502 515 10;
#X obj 113 278 cos~;
#X obj 113 305 *~;
#X obj 113 334 +~;
#X obj 282 196 wrap~;
#X obj 282 288 cos~;
#X obj 282 315 *~;
#X obj 282 169 +~ 0.5;
#X obj 113 226 -~ 0.5;
#X obj 113 252 *~ 0.5;
#X obj 282 227 -~ 0.5;
#X obj 282 260 *~ 0.5;
#X obj 114 110 phasor~;
#X obj 115 59 inlet~;
#X obj 345 290 vd~ \$0-del;
#X obj 176 278 vd~ \$0-del;
#X obj 112 361 outlet~;
#X obj 13 7 inlet~;
#X obj 345 261 +~ 2;
#X obj 176 252 +~ 2;
#X obj 345 228 *~ 50;
#X obj 176 226 *~ 50;
#X obj 114 84 expr~ (1-exp($v1*0.05776))*1000.0/$f2;
#X obj 379 35 loadbang;
#X msg 376 61 20;
#X obj 12 34 delwrite~ \$0-del 25;
#X connect 0 0 1 0;
#X connect 1 0 2 0;
#X connect 2 0 15 0;
#X connect 3 0 9 0;
#X connect 3 0 19 0;
#X connect 4 0 5 0;
#X connect 5 0 2 1;
#X connect 6 0 3 0;
#X connect 7 0 8 0;
#X connect 8 0 0 0;
#X connect 9 0 10 0;
#X connect 10 0 4 0;
#X connect 11 0 7 0;
#X connect 11 0 6 0;
#X connect 11 0 20 0;
#X connect 12 0 21 0;
#X connect 13 0 5 1;
#X connect 14 0 1 1;
#X connect 16 0 24 0;
#X connect 17 0 13 0;
#X connect 18 0 14 0;
#X connect 19 0 17 0;
#X connect 20 0 18 0;
#X connect 21 0 11 0;
#X connect 22 0 23 0;
#X connect 23 0 21 1;
#X connect 23 0 19 1;
#X connect 23 0 20 1;
