#N canvas 3 113 450 300 10;
#X obj 44 200 compress~ 48;
#X obj 76 55 noise~;
#X obj 76 77 *~ 1e-06;
#X obj 43 175 lop~ 5000;
#X obj 43 153 hip~ 25;
#X obj 321 23 loadbang;
#X obj 321 45 f \$1;
#X obj 73 228 throw~ OUT-l;
#X obj 44 97 s~ RULE-\$1-l;
#X obj 43 131 catch~ RULE-\$1-l;
#X obj 167 176 lop~ 5000;
#X obj 167 154 hip~ 25;
#X obj 167 132 catch~ RULE-\$1-r;
#X obj 174 228 throw~ OUT-r;
#X obj 183 68 noise~;
#X obj 183 90 *~ 1e-06;
#X obj 151 110 s~ RULE-\$1-r;
#X obj 164 200 compress~ 48;
#X obj 321 89 + 2;
#X obj 321 67 * 0.1;
#X obj 154 46 delread~ RULE-\$1-r 2;
#X obj 43 24 delread~ RULE-\$1-l 2;
#X obj 128 279 delwrite~ RULE-\$1-r 5;
#X obj 42 255 delwrite~ RULE-\$1-l 5;
#X connect 0 0 7 0;
#X connect 0 0 23 0;
#X connect 1 0 2 0;
#X connect 2 0 8 0;
#X connect 3 0 0 0;
#X connect 4 0 3 0;
#X connect 5 0 6 0;
#X connect 6 0 19 0;
#X connect 9 0 4 0;
#X connect 10 0 17 0;
#X connect 11 0 10 0;
#X connect 12 0 11 0;
#X connect 14 0 15 0;
#X connect 15 0 16 0;
#X connect 17 0 13 0;
#X connect 17 0 22 0;
#X connect 18 0 20 0;
#X connect 18 0 21 0;
#X connect 19 0 18 0;
#X connect 20 0 16 0;
#X connect 21 0 8 0;
